<svg width="36" height="36" viewBox="0 0 36 36" fill="none" xmlns="http://www.w3.org/2000/svg">
    <g clip-path="url(#clip0_816_3313)">
        <path d="M4.5 15C4.5 16.3789 4.77159 17.7443 5.29927 19.0182C5.82694 20.2921 6.60036 21.4496 7.57538 22.4246C8.55039 23.3996 9.70791 24.1731 10.9818 24.7007C12.2557 25.2284 13.6211 25.5 15 25.5C16.3789 25.5 17.7443 25.2284 19.0182 24.7007C20.2921 24.1731 21.4496 23.3996 22.4246 22.4246C23.3996 21.4496 24.1731 20.2921 24.7007 19.0182C25.2284 17.7443 25.5 16.3789 25.5 15C25.5 13.6211 25.2284 12.2557 24.7007 10.9818C24.1731 9.70791 23.3996 8.55039 22.4246 7.57538C21.4496 6.60036 20.2921 5.82694 19.0182 5.29926C17.7443 4.77159 16.3789 4.5 15 4.5C13.6211 4.5 12.2557 4.77159 10.9818 5.29926C9.70791 5.82694 8.55039 6.60036 7.57538 7.57538C6.60036 8.55039 5.82694 9.70791 5.29927 10.9818C4.77159 12.2557 4.5 13.6211 4.5 15Z" stroke="black" stroke-width="3.33849" stroke-linecap="round" stroke-linejoin="round"/>
        <path d="M31.5 31.5L22.5 22.5" stroke="black" stroke-width="3.33849" stroke-linecap="round" stroke-linejoin="round"/>
        <path d="M14.999 19.501V19.5163" stroke="black" stroke-width="3.33849" stroke-linecap="round" stroke-linejoin="round"/>
        <path d="M14.9991 15C15.3766 15.0002 15.7481 14.9054 16.0794 14.7243C16.4107 14.5432 16.6911 14.2816 16.8948 13.9637C17.0984 13.6458 17.2188 13.2817 17.2448 12.9051C17.2709 12.5284 17.2017 12.1513 17.0437 11.8084C16.8857 11.4655 16.6439 11.1678 16.3407 10.9429C16.0375 10.718 15.6825 10.573 15.3085 10.5212C14.9345 10.4695 14.5535 10.5127 14.2006 10.6469C13.8477 10.781 13.5342 11.0019 13.2891 11.289" stroke="black" stroke-width="3.33849" stroke-linecap="round" stroke-linejoin="round"/>
    </g>
    <defs>
        <clipPath id="clip0_816_3313">
            <rect width="36" height="36" fill="white"/>
        </clipPath>
    </defs>
</svg>
