<svg width="112" height="111" viewBox="0 0 112 111" fill="none" xmlns="http://www.w3.org/2000/svg">
    <path d="M62.396 62.0566C66.0141 63.7848 70.0651 64.7523 74.3421 64.7523C89.6686 64.7523 102.093 52.3277 102.093 37.0012C102.093 21.6746 89.6686 9.25 74.3421 9.25C59.0156 9.25 46.5909 21.6746 46.5909 37.0012C46.5909 41.2782 47.5585 45.3292 49.2866 48.9472M26.6765 29.2385L35.43 19.5167M35.43 19.5167L25.7082 10.7631M35.43 19.5167C22.8419 20.1764 7.82582 23.0472 8.68516 39.4445M85.0075 81.76L76.2539 91.4819M76.2539 91.4819L85.9757 100.235M76.2539 91.4819C88.8421 90.8221 103.858 87.9514 102.999 71.5541M65.0917 74.0027C65.0917 89.3292 52.6671 101.754 37.3406 101.754C22.014 101.754 9.58939 89.3292 9.58939 74.0027C9.58939 58.6762 22.014 46.2515 37.3406 46.2515C52.6671 46.2515 65.0917 58.6762 65.0917 74.0027Z" stroke="black" stroke-width="6.93779" stroke-linecap="round" stroke-linejoin="round"/>
</svg>
