<svg width="72" height="72" viewBox="0 0 72 72" fill="none" xmlns="http://www.w3.org/2000/svg">
    <rect x="1.65722" y="1.65722" width="68.6856" height="68.6856" rx="34.3428" fill="#FFA30E"/>
    <rect x="1.65722" y="1.65722" width="68.6856" height="68.6856" rx="34.3428" stroke="#FFA30E" stroke-width="3.31444"/>
    <path d="M25.6483 50.0635V44.6657L35.958 36.1373C36.6417 35.5706 37.2265 35.0398 37.7123 34.545C38.2071 34.0412 38.5849 33.5239 38.8458 32.9932C39.1157 32.4624 39.2506 31.8731 39.2506 31.2254C39.2506 30.5147 39.0977 29.9075 38.7918 29.4037C38.4949 28.8999 38.0811 28.513 37.5503 28.2432C37.0196 27.9643 36.4078 27.8248 35.7151 27.8248C35.0224 27.8248 34.4106 27.9643 33.8799 28.2432C33.3581 28.522 32.9533 28.9314 32.6654 29.4711C32.3775 30.0109 32.2336 30.6676 32.2336 31.4413H25.1086C25.1086 29.4981 25.5449 27.8248 26.4175 26.4214C27.2901 25.018 28.5226 23.9385 30.115 23.1828C31.7073 22.4271 33.574 22.0493 35.7151 22.0493C37.9282 22.0493 39.8444 22.4046 41.4637 23.1153C43.092 23.817 44.347 24.8066 45.2286 26.0841C46.1192 27.3615 46.5645 28.8594 46.5645 30.5777C46.5645 31.6392 46.3441 32.6963 45.9033 33.7488C45.4625 34.7924 44.6708 35.9484 43.5283 37.2169C42.3858 38.4854 40.762 39.9967 38.6569 41.751L36.066 43.9101V44.072H46.8614V50.0635H25.6483Z" fill="white"/>
</svg>
