<svg width="72" height="72" viewBox="0 0 72 72" fill="none" xmlns="http://www.w3.org/2000/svg">
    <rect x="1.65722" y="1.65722" width="68.6856" height="68.6856" rx="34.3428" fill="#FFA30E"/>
    <rect x="1.65722" y="1.65722" width="68.6856" height="68.6856" rx="34.3428" stroke="#FFA30E" stroke-width="3.31444"/>
    <path d="M36.0001 50.3144C33.823 50.3144 31.8888 49.941 30.1975 49.1943C28.5152 48.4387 27.1928 47.3996 26.2302 46.0771C25.2676 44.7547 24.7818 43.2343 24.7728 41.5161H32.3296C32.3386 42.0468 32.5005 42.5236 32.8154 42.9465C33.1393 43.3603 33.5801 43.6842 34.1379 43.9181C34.6956 44.152 35.3343 44.2689 36.054 44.2689C36.7468 44.2689 37.3585 44.1475 37.8893 43.9046C38.42 43.6527 38.8339 43.3063 39.1307 42.8655C39.4276 42.4247 39.5716 41.9209 39.5626 41.3541C39.5716 40.7964 39.4006 40.3016 39.0498 39.8698C38.7079 39.4379 38.2266 39.1006 37.6059 38.8577C36.9852 38.6148 36.27 38.4933 35.4603 38.4933H32.6535V33.3115H35.4603C36.207 33.3115 36.8637 33.1901 37.4305 32.9472C38.0062 32.7043 38.4515 32.3669 38.7664 31.9351C39.0903 31.5033 39.2477 31.0085 39.2387 30.4507C39.2477 29.911 39.1173 29.4342 38.8474 29.0203C38.5775 28.6065 38.1996 28.2826 37.7138 28.0487C37.237 27.8148 36.6838 27.6979 36.054 27.6979C35.3703 27.6979 34.7586 27.8193 34.2188 28.0622C33.688 28.3051 33.2697 28.6425 32.9638 29.0743C32.658 29.5061 32.5005 30.0009 32.4915 30.5587H25.3126C25.3216 28.8674 25.7849 27.374 26.7025 26.0786C27.6291 24.7831 28.8976 23.7665 30.5079 23.0289C32.1182 22.2912 33.9669 21.9223 36.054 21.9223C38.0962 21.9223 39.8999 22.2687 41.4653 22.9614C43.0396 23.6541 44.2676 24.6077 45.1492 25.8222C46.0398 27.0277 46.4807 28.4086 46.4717 29.9649C46.4897 31.5123 45.9589 32.7807 44.8793 33.7703C43.8088 34.7599 42.4504 35.3447 40.804 35.5246V35.7405C43.0351 35.9834 44.7129 36.6671 45.8374 37.7916C46.962 38.9072 47.5152 40.3106 47.4972 42.0019C47.5062 43.6212 47.0204 45.0561 46.0398 46.3066C45.0682 47.557 43.7143 48.5376 41.9781 49.2483C40.2508 49.959 38.2581 50.3144 36.0001 50.3144Z" fill="white"/>
</svg>
